<?xml version="1.0" encoding="UTF-8"?>
<!DOCTYPE svg PUBLIC "-//W3C//DTD SVG 1.1//EN" "http://www.w3.org/Graphics/SVG/1.1/DTD/svg11.dtd">
<!-- Creator: CorelDRAW 2021 (64-Bit) -->
<svg xmlns="http://www.w3.org/2000/svg" xml:space="preserve" width="158.121mm" height="56.8245mm" version="1.1" style="shape-rendering:geometricPrecision; text-rendering:geometricPrecision; image-rendering:optimizeQuality; fill-rule:evenodd; clip-rule:evenodd"
viewBox="0 0 12487.35 4487.61"
 xmlns:xlink="http://www.w3.org/1999/xlink"
 xmlns:xodm="http://www.corel.com/coreldraw/odm/2003">
 <defs>
  <style type="text/css">
   <![CDATA[
    .fil0 {fill:#265AA5}
   ]]>
  </style>
 </defs>
 <g id="Layer_x0020_1">
  <metadata id="CorelCorpID_0Corel-Layer"/>
  <path class="fil0" d="M1853.6 1268.24c0,-280.56 -16.94,-563.29 197.67,-777.89 199.4,-199.38 418,-209.88 680.35,-209.88 421.9,0 707.28,316.82 707.28,743.88 0,297.14 18.85,565.74 -210.01,789.94 -216.39,212 -657.04,246.96 -931.36,144.12 -294.16,-110.29 -443.92,-372.49 -443.92,-690.17zm650.42 -1268.24l298.85 0c164.79,12.27 324.67,44.75 466.88,96 271.86,97.97 460.74,281.65 587.93,533.95 159.45,316.3 157.35,719.62 0,1032.67 -67.96,135.25 -141.73,241.29 -251.63,333.71 -458.27,385.36 -1265.44,371.04 -1752.45,113.34l0 1499.92 524.36 0c28.11,0 36.59,8.48 36.59,36.59 0,472.08 33.63,416.94 -121.72,414.84l-475.81 -0.22c-26.07,-111.88 -12.2,-315.24 -12.2,-439l-487.79 0 0 -2280.39c-305.41,161.59 -824.95,143.51 -1069.73,-64.37 -213.81,-181.58 -247.29,-367.76 -247.29,-630.73 0,-116.88 73.94,-284.94 143.42,-368.76 222.54,-268.45 431.61,-277.34 767.31,-277.55l16.07 0c308.78,0 563.83,176.05 670.71,378.04 31.27,-20.95 101.13,-96.53 187.62,-153.84 198.66,-131.62 455.31,-204.44 718.89,-224.2zm-2162.56 841.43c0,-237.13 -33.33,-388.12 149.14,-558.14 210.72,-196.34 838.62,-163.47 838.62,338.65l0 219.5c0,219.33 -183.81,414.61 -402.42,414.61l-182.92 0c-213.88,0 -402.42,-202.33 -402.42,-414.61z"/>
  <path class="fil0" d="M8719.2 1670.66c0,-383.91 -27.87,-671.13 395.57,-727.31 255.37,-33.88 445.87,171.01 445.87,459.02 0,351.51 39.88,731.68 -426.83,731.68 -285.97,0 -414.61,-178.28 -414.61,-463.39zm-378.04 -1670.66l342.89 0c41.87,7.31 36.63,28.65 36.19,84.3l-1.05 769.31c236.97,-55.2 68.3,-97.55 548.76,-97.55 546.18,0 778.79,631.48 602.35,1138.93 -23.78,68.4 -93.59,186.05 -143.05,234.97 -230.16,227.73 -656.99,244.26 -945.4,136.54 -344.28,-128.59 -440.69,-428.39 -440.69,-827.54l0 -1438.96z"/>
  <path class="fil0" d="M11633.72 2097.47c0,389.24 27.81,765.81 158.49,1024.39 147.88,292.66 333.52,457.64 695.14,487.73l0 -292.67c-58.15,-27.9 -115.62,-10.68 -211.13,-81.52 -175.15,-129.92 -264.46,-410.45 -264.46,-650.15l0 -2585.26 -378.04 0 0 2097.47z"/>
  <path class="fil0" d="M7475.33 2134.05c-440.32,0 -402.42,-410.33 -402.42,-707.28 0,-237.9 107.77,-451.21 341.46,-451.21 118.18,0 254.1,-14.76 350.48,64.13 52.46,42.94 72.88,80.7 100.81,143.09 19.85,44.32 43.74,137.64 47.94,195.97 2.66,37.08 8.03,93.99 8.99,111.67 1.8,33.8 -7.43,55.68 -8.25,106.97 -4.37,268.82 -135.13,536.66 -439,536.66zm-768.26 -670.7c0,257.73 23.91,501.43 203.83,674.17 187.2,179.74 619.19,270.06 834.89,108.45 22.33,-16.72 72.31,-68.14 90.51,-92.41 16.09,-21.42 25.42,-37.3 38.99,-58.57l39.06 -58.49c0,361.71 -75.05,292.67 341.44,292.67 28.11,0 36.59,-8.48 36.59,-36.58 0,-309.5 24.88,-751.57 -46.12,-1027 -79.38,-307.99 -346.7,-485.15 -697.76,-485.15 -322.11,0 -632.95,35.66 -775.53,395.15 -29.54,74.46 -65.9,191.97 -65.9,287.76z"/>
  <path class="fil0" d="M4755.93 975.56c161.64,0 302.87,-23.12 410.03,138.73 153.37,231.66 124.01,786.59 -127.42,960.92 -93.65,64.94 -168.37,57.34 -295.23,47.07 -121.49,-9.82 -185.03,-47.82 -240.52,-125.34 -46.36,-64.78 -88.3,-169.51 -88.81,-277.03 -0.36,-77.61 -6.12,-111.88 -11.35,-172.13 -5.96,-68.73 9.23,-101.18 11.88,-169.75 8.3,-214.23 118.96,-402.47 341.42,-402.47zm-707.3 475.59c0,209.17 -12.59,273.83 62.52,474.04 153.35,408.75 770.79,507.25 965.09,309.67 33.3,-33.86 57.64,-58.35 91.28,-91.63 84.79,-83.9 53.42,-66.49 88.39,-106.72 0,364.01 -79.29,292.67 365.84,292.67l0 -865.82c0,-164.49 -85.95,-373.21 -203.77,-491.33 -25.48,-25.54 -64.09,-52.98 -95.92,-74.8 -265.48,-182.02 -870.27,-163.82 -1081.48,75.18 -88.4,100.04 -191.95,295.55 -191.95,478.74z"/>
  <path class="fil0" d="M10816.67 2134.05c-54.86,0 -166.64,-11.28 -206.28,-25.41 -260.31,-92.71 -257.11,-356.25 -257.11,-608.7 0,-244.63 66.2,-524.38 353.64,-524.38 172.19,0 327.77,-18.27 423.04,162.3 79.91,151.42 227.23,996.19 -313.29,996.19zm-829.23 -597.53c0,932.71 1069.67,915.71 1369.02,588.54 64.41,-70.4 110.15,-151.01 151.4,-238.82 168.94,-359.57 51.99,-1093 -716.71,-1115.57 -423.6,-12.45 -803.71,268.72 -803.71,765.84z"/>
  <path class="fil0" d="M5682.72 1560.91l0 731.68c0,28.1 8.48,36.58 36.58,36.58 393.48,0 329.33,49.69 329.26,-195.12l-0.14 -731.82c6.59,-137.9 71.98,-267.15 149.22,-338.57 154.35,-142.7 334.96,-124.68 546.02,-124.68 0,-193.09 19.86,-170.72 -97.56,-170.72 -277.65,0 -481.74,34.61 -688.32,189.69 -153.98,115.6 -275.06,336.79 -275.06,602.96z"/>
  <path class="fil0" d="M1804.81 4255.91l0 231.7 317.05 0c0,-332.77 65.6,-268.29 -280.47,-268.29 -28.1,0 -36.58,8.5 -36.58,36.59z"/>
 </g>
</svg>
